<?xml version="1.0" encoding="UTF-8"?>
<svg id="Layer_1" data-name="Layer 1" xmlns="http://www.w3.org/2000/svg" viewBox="0 0 1688.970703125 433.62890625">
  <path d="M125.71875,380.1552734375c18.1875,0,34.62890625-7.130859375,49.3271484375-21.3896484375,15.2783203125-14.5517578125,22.91796875-31.5009765625,22.91796875-50.8544921875-16.587890625,24.0087890625-40.671875,36.0126953125-72.2451171875,36.0126953125-34.6318359375,0-64.244140625-12.2939453125-88.8330078125-36.8857421875C12.2939453125,282.44921875,0,252.8369140625,0,218.205078125c0-34.6279296875,12.2939453125-64.240234375,36.8857421875-88.83203125,24.5888671875-24.5888671875,54.201171875-36.88671875,88.8330078125-36.88671875,34.4853515625,0,64.0224609375,12.22265625,88.6142578125,36.66796875,24.5888671875,24.302734375,36.9580078125,53.8388671875,37.1044921875,88.6142578125v90.142578125c0,34.0478515625-13.1708984375,63.7314453125-39.5048828125,89.0498046875-25.4658203125,24.4453125-54.2041015625,36.66796875-86.2138671875,36.66796875-49.037109375,0-85.7763671875-19.0634765625-110.2216796875-57.18359375-2.9130859375-4.5126953125-4.365234375-9.16796875-4.365234375-13.96875,0-2.9130859375,.5078125-5.822265625,1.52734375-8.73046875,2.619140625-8.1513671875,8.0009765625-13.67578125,16.1513671875-16.587890625l.6552734375-.21875c3.634765625-1.3095703125,7.126953125-1.96484375,10.4765625-1.96484375,8.146484375,0,14.984375,4.076171875,20.515625,12.22265625,14.40625,21.9697265625,36.1572265625,32.9580078125,65.2607421875,32.9580078125Zm72.2451171875-163.259765625c-.2939453125-19.6435546875-7.49609375-36.3740234375-21.6083984375-50.2001953125-13.96875-13.822265625-30.849609375-20.734375-50.63671875-20.734375-20.080078125,0-37.1796875,7.0595703125-51.2919921875,21.1708984375-13.96875,14.115234375-20.953125,31.1396484375-20.953125,51.0732421875,0,20.080078125,6.984375,37.1796875,20.953125,51.2919921875,14.1123046875,13.96875,31.2119140625,20.953125,51.2919921875,20.953125s37.1044921875-6.984375,51.0732421875-20.953125c14.1123046875-14.1123046875,21.171875-31.2119140625,21.171875-51.2919921875v-1.3095703125Z" style="fill: #fff;"/>
  <path d="M500.7001953125,129.373046875c24.5888671875,24.591796875,36.88671875,54.2041015625,36.88671875,88.83203125v99.3095703125c0,7.4208984375-2.619140625,13.607421875-7.857421875,18.5517578125-5.23828125,5.23828125-11.4248046875,7.857421875-18.552734375,7.857421875h-.654296875c-7.130859375,0-13.314453125-2.619140625-18.552734375-7.857421875-5.23828125-4.9443359375-7.857421875-11.130859375-7.857421875-18.5517578125-16.587890625,17.607421875-40.6708984375,26.4091796875-72.244140625,26.4091796875-34.6318359375,0-64.244140625-12.2939453125-88.83203125-36.8857421875-24.5927734375-24.5888671875-36.88671875-54.201171875-36.88671875-88.8330078125,0-34.6279296875,12.2939453125-64.240234375,36.88671875-88.83203125,24.587890625-24.5888671875,54.2001953125-36.88671875,88.83203125-36.88671875,34.62890625,0,64.240234375,12.2978515625,88.83203125,36.88671875Zm-140.123046875,37.7587890625c-13.96875,14.115234375-20.953125,31.1396484375-20.953125,51.0732421875,0,20.080078125,6.984375,37.1796875,20.953125,51.2919921875,14.111328125,13.96875,31.2109375,20.953125,51.291015625,20.953125s37.1044921875-6.984375,51.0732421875-20.953125c14.1123046875-14.1123046875,21.1708984375-31.2119140625,21.1708984375-51.2919921875,0-19.93359375-7.05859375-36.9580078125-21.1708984375-51.0732421875-14.115234375-14.111328125-31.1396484375-21.1708984375-51.0732421875-21.1708984375-20.080078125,0-37.1796875,7.0595703125-51.291015625,21.1708984375Z" style="fill: #fff;"/>
  <path d="M599.3642578125,2.9990234375c7.1279296875,0,13.314453125,2.5478515625,18.552734375,7.6396484375,5.23828125,5.23828125,7.857421875,11.49609375,7.857421875,18.7705078125v63.0771484375h32.73828125c7.1279296875,0,13.314453125,2.619140625,18.552734375,7.857421875s7.857421875,11.49609375,7.857421875,18.7705078125v.4365234375c0,7.4208984375-2.619140625,13.607421875-7.857421875,18.552734375-5.23828125,5.23828125-11.4248046875,7.857421875-18.552734375,7.857421875h-32.73828125v129.4287109375c0,4.22265625,1.4521484375,7.7861328125,4.365234375,10.6953125,2.908203125,2.912109375,6.546875,4.365234375,10.912109375,4.365234375h17.4609375c7.1279296875,0,13.314453125,2.619140625,18.552734375,7.857421875s7.857421875,11.49609375,7.857421875,18.7705078125v.4365234375c0,7.4208984375-2.619140625,13.607421875-7.857421875,18.5517578125-5.23828125,5.23828125-11.4248046875,7.857421875-18.552734375,7.857421875h-17.4609375c-18.9169921875,0-35.1396484375-6.69140625-48.671875-20.080078125-13.388671875-13.5322265625-20.080078125-29.68359375-20.080078125-48.4541015625V29.4091796875c0-7.2744140625,2.619140625-13.5322265625,7.857421875-18.7705078125,5.23828125-5.091796875,11.4208984375-7.6396484375,18.552734375-7.6396484375h.654296875Z" style="fill: #fff;"/>
  <path d="M733.603515625,2.9990234375c7.1279296875,0,13.314453125,2.5478515625,18.552734375,7.6396484375,5.23828125,5.23828125,7.857421875,11.49609375,7.857421875,18.7705078125V105.3642578125c11.4921875-8.583984375,28.8818359375-12.8779296875,52.1640625-12.8779296875,28.9541015625,0,53.763671875,10.333984375,74.427734375,30.9931640625,20.6591796875,20.6630859375,30.9921875,45.544921875,30.9921875,74.6455078125v119.3896484375c0,7.4208984375-2.619140625,13.607421875-7.857421875,18.5517578125-4.9482421875,5.23828125-11.130859375,7.857421875-18.5517578125,7.857421875h-.4365234375c-7.27734375,0-13.5322265625-2.619140625-18.7705078125-7.857421875-5.23828125-4.9443359375-7.857421875-11.130859375-7.857421875-18.5517578125v-119.3896484375c0-14.4052734375-5.0205078125-26.69921875-15.0595703125-36.8857421875-10.1875-10.18359375-22.4814453125-15.2783203125-36.88671875-15.2783203125-14.5517578125,0-26.9208984375,5.0947265625-37.1044921875,15.2783203125-10.0400390625,10.1865234375-15.0595703125,22.48046875-15.0595703125,36.8857421875v119.3896484375c0,7.4208984375-2.619140625,13.607421875-7.857421875,18.5517578125-5.23828125,5.23828125-11.4248046875,7.857421875-18.552734375,7.857421875h-.654296875c-7.1318359375,0-13.314453125-2.619140625-18.552734375-7.857421875-5.23828125-4.9443359375-7.857421875-11.130859375-7.857421875-18.5517578125V29.4091796875c0-7.2744140625,2.619140625-13.5322265625,7.857421875-18.7705078125,5.23828125-5.091796875,11.4208984375-7.6396484375,18.552734375-7.6396484375h.654296875Z" style="fill: #fff;"/>
  <path d="M1185.6328125,165.822265625c1.74609375,3.638671875,2.619140625,7.349609375,2.619140625,11.1318359375,0,3.0556640625-.583984375,6.111328125-1.74609375,9.1669921875-2.4765625,6.8408203125-7.1318359375,11.7861328125-13.96875,14.841796875-20.3740234375,9.1669921875-47.14453125,21.24609375-80.3203125,36.2314453125-41.1806640625,18.626953125-65.3359375,29.611328125-72.462890625,32.95703125,11.0556640625,13.96875,28.298828125,20.953125,51.7275390625,20.953125,15.568359375,0,29.68359375-4.5830078125,42.3427734375-13.75,12.3662109375-9.0205078125,21.0244140625-20.66015625,25.97265625-34.921875,4.21875-11.9296875,12.66015625-17.8974609375,25.318359375-17.8974609375,9.0205078125,0,16.2236328125,3.78515625,21.6083984375,11.349609375,3.345703125,4.658203125,5.0205078125,9.53125,5.0205078125,14.623046875,0,3.0556640625-.583984375,6.1865234375-1.74609375,9.3857421875-8.587890625,24.8818359375-23.6474609375,44.9619140625-45.1806640625,60.240234375-21.826171875,15.861328125-46.271484375,23.7900390625-73.3359375,23.7900390625-34.6318359375,0-64.244140625-12.2939453125-88.8330078125-36.8857421875-24.591796875-24.5888671875-36.8857421875-54.201171875-36.8857421875-88.8330078125,0-34.6279296875,12.2939453125-64.240234375,36.8857421875-88.83203125,24.5888671875-24.5888671875,54.201171875-36.88671875,88.8330078125-36.88671875,25.025390625,0,47.87109375,6.841796875,68.5341796875,20.5166015625,20.5166015625,13.3896484375,35.7197265625,30.9931640625,45.6171875,52.8193359375Zm-114.1513671875-19.4248046875c-20.080078125,0-37.1796875,7.0595703125-51.2919921875,21.1708984375-13.96875,14.115234375-20.953125,31.2119140625-20.953125,51.2919921875v1.52734375l122.0087890625-54.783203125c-10.76953125-12.802734375-27.357421875-19.20703125-49.763671875-19.20703125Z" style="fill: #fff;"/>
  <path d="M1330.78515625,92.486328125c7.2744140625,0,13.5322265625,2.619140625,18.7705078125,7.857421875,5.091796875,5.23828125,7.638671875,11.49609375,7.638671875,18.7705078125v.4365234375c0,7.2783203125-2.546875,13.4609375-7.638671875,18.552734375-5.23828125,5.23828125-11.49609375,7.857421875-18.7705078125,7.857421875h-12.4404296875c-11.93359375,0-22.044921875,4.146484375-30.3388671875,12.4404296875-8.150390625,8.2939453125-12.2978515625,18.4091796875-12.4404296875,30.3388671875v128.7744140625c0,7.4208984375-2.619140625,13.607421875-7.857421875,18.5517578125-5.23828125,5.23828125-11.4248046875,7.857421875-18.552734375,7.857421875h-.654296875c-7.1318359375,0-13.314453125-2.619140625-18.552734375-7.857421875-5.23828125-4.9443359375-7.857421875-11.130859375-7.857421875-18.5517578125V188.740234375c.2900390625-26.6279296875,9.6748046875-49.3271484375,28.15625-68.09765625,18.76953125-18.7705078125,41.46875-28.15625,68.09765625-28.15625h12.4404296875Z" style="fill: #fff;"/>
  <path d="M1408.0595703125,2.9990234375c7.1279296875,0,13.314453125,2.5478515625,18.552734375,7.6396484375,5.23828125,5.23828125,7.857421875,11.49609375,7.857421875,18.7705078125V317.5146484375c0,7.4208984375-2.619140625,13.607421875-7.857421875,18.5517578125-5.23828125,5.23828125-11.4248046875,7.857421875-18.552734375,7.857421875h-.654296875c-7.1318359375,0-13.314453125-2.619140625-18.552734375-7.857421875-5.23828125-4.9443359375-7.857421875-11.130859375-7.857421875-18.5517578125V29.4091796875c0-7.2744140625,2.619140625-13.5322265625,7.857421875-18.7705078125,5.23828125-5.091796875,11.4208984375-7.6396484375,18.552734375-7.6396484375h.654296875Z" style="fill: #fff;"/>
  <path d="M1531.38671875,233.7021484375c0,14.4052734375,5.01953125,26.703125,15.0595703125,36.8857421875,10.18359375,10.1865234375,22.552734375,15.2783203125,37.1044921875,15.2783203125,14.2587890625,0,26.4814453125-5.091796875,36.66796875-15.2783203125,10.18359375-10.1826171875,15.2783203125-22.48046875,15.2783203125-36.8857421875V119.1142578125c0-7.2744140625,2.619140625-13.5322265625,7.857421875-18.7705078125s11.4931640625-7.857421875,18.7705078125-7.857421875h.4365234375c7.4208984375,0,13.603515625,2.619140625,18.5517578125,7.857421875,5.23828125,5.23828125,7.857421875,11.49609375,7.857421875,18.7705078125v208.876953125c0,28.8095703125-10.8408203125,53.6923828125-32.5205078125,74.6455078125-21.099609375,20.6591796875-45.3984375,30.9921875-72.8994140625,30.9921875-21.826171875,0-41.6875-5.384765625-59.5859375-16.150390625-17.4609375-10.4765625-30.703125-24.5205078125-39.72265625-42.125-2.0400390625-3.9287109375-3.056640625-7.857421875-3.056640625-11.7861328125,0-3.3486328125,.7265625-6.6943359375,2.18359375-10.0400390625,2.908203125-7.5673828125,8-12.583984375,15.27734375-15.060546875l.873046875-.435546875c3.19921875-1.0166015625,6.330078125-1.5283203125,9.3857421875-1.5283203125,3.19921875,0,6.3291015625,.5830078125,9.3857421875,1.74609375,5.9638671875,2.4755859375,10.4765625,6.619140625,13.53125,12.4404296875,4.6552734375,8.73046875,11.6396484375,15.787109375,20.953125,21.171875,9.45703125,5.5283203125,19.7158203125,8.2939453125,30.775390625,8.2939453125,13.822265625,0,25.8984375-5.0947265625,36.2314453125-15.2783203125,10.4765625-10.4765625,15.71484375-22.7705078125,15.71484375-36.8857421875v-1.74609375c-11.49609375,8.5869140625-28.810546875,12.876953125-51.9462890625,12.876953125-29.103515625,0-53.9853515625-10.330078125-74.6455078125-30.9931640625-20.6630859375-20.5166015625-30.9931640625-45.3232421875-30.9931640625-74.4267578125V119.1142578125c0-7.2744140625,2.619140625-13.5322265625,7.857421875-18.7705078125s11.4208984375-7.857421875,18.552734375-7.857421875h.654296875c7.1279296875,0,13.314453125,2.619140625,18.552734375,7.857421875s7.857421875,11.49609375,7.857421875,18.7705078125v114.587890625Z" style="fill: #fff;"/>
</svg>