<?xml version="1.0" encoding="UTF-8"?>
<svg id="Layer_1" data-name="Layer 1" xmlns="http://www.w3.org/2000/svg" xmlns:xlink="http://www.w3.org/1999/xlink" viewBox="0 0 524.660968964939457 636.426252924447908">
  <defs>
    <clipPath id="clippath">
      <path d="M461.258285343619718,433.280267288846517c.099147998029366-.112508366559268,.16665301797002-.236267569778647,.264394661420738-.349479113629059,39.326596354379944-45.873880110990285,63.138288959899-105.439325255270887,63.138288959899-170.600655281410582C524.660968964939457,117.44889020843766,407.212078756490882-.000000000012733,262.330836071119847-.000000000012733,117.449593385739718-.000000000012733,0,117.44889020843766,0,262.330132893806876c0,65.16062684885037,23.810989428229732,124.72466563854141,63.136179428029209,170.59854574954079,.098444820740042,.113914721139736,.16665301797002,.237673924359115,.26650419329053,.35158864549885l2.383067839240539,2.706529393100936c.959133824939272,1.084299382739118,1.892250090109883,2.190397261500038,2.868963347320459,3.258523566550139l67.633701381339051,76.817899979228969,92.709706756089872,105.299392974360671c17.683502514350039,20.084852963149388,48.981923737261241,20.084852963149388,66.664723074320136,0l92.710409933379196-105.299392974360671,67.625966431131019-76.809461851738888c.988667271170925-1.082189850871146,1.935143904869619-2.202351275451292,2.906231743749231-3.300714204000542l2.352831215730475-2.672776883140614Z" style="fill: none;"/>
    </clipPath>
  </defs>
  <g>
    <path d="M461.258285343619718,433.280267288846517c.099147998029366-.112508366559268,.16665301797002-.236267569778647,.264394661420738-.349479113629059,39.326596354379944-45.873880110990285,63.138288959899-105.439325255270887,63.138288959899-170.600655281410582C524.660968964939457,117.44889020843766,407.212078756490882-.000000000012733,262.330836071119847-.000000000012733,117.449593385739718-.000000000012733,0,117.44889020843766,0,262.330132893806876c0,65.16062684885037,23.810989428229732,124.72466563854141,63.136179428029209,170.59854574954079,.098444820740042,.113914721139736,.16665301797002,.237673924359115,.26650419329053,.35158864549885l2.383067839240539,2.706529393100936c.959133824939272,1.084299382739118,1.892250090109883,2.190397261500038,2.868963347320459,3.258523566550139l67.633701381339051,76.817899979228969,92.709706756089872,105.299392974360671c17.683502514350039,20.084852963149388,48.981923737261241,20.084852963149388,66.664723074320136,0l92.710409933379196-105.299392974360671,67.625966431131019-76.809461851738888c.988667271170925-1.082189850871146,1.935143904869619-2.202351275451292,2.906231743749231-3.300714204000542l2.352831215730475-2.672776883140614Z" style="fill: #fff;"/>
    <g style="clip-path: url(#clippath);">
      <g>
        <path d="M537.694496730460742,440.304333874397344c0-52.895903220469336-43.907717831330956-95.777052716790422-98.069941100000506-95.777052716790422-54.162786672080983,0-98.069941100000506,42.881149496321086-98.069941100000506,95.777052716790422,0,1.977530074420429,.18197930091992,3.909390979089949,.303111033750611,5.857208581590385h-.303111033750611v103.356484206829919h196.139882200001011v-103.356484206829919h-.303111033741516c.121131732821596-1.947817602500436,.303111033741516-3.879678507169956,.303111033741516-5.857208581590385Z" style="fill: #acc9e7;"/>
        <path d="M496.222764833199108,306.81723215018792c0,31.258327808678587-25.339881394058466,56.598209202738872-56.598209202738872,56.598209202758881-31.258327808651302-.000000000020009-56.598209202729777-25.339881394080294-56.598209202729777-56.598209202758881,.000000000020009-31.258327808651302,25.339881394078475-56.598209202709768,56.598209202689759-56.598209202709768,31.258327808680406,0,56.5982092027607,25.339881394078475,56.598209202778889,56.598209202709768Z" style="fill: #acc9e7;"/>
        <path d="M183.106354434479726,440.304333874397344c0-52.895903220469336-43.907717831340051-95.777052716790422-98.069941100000506-95.777052716790422-54.162786672090078,0-98.069941100009601,42.881149496321086-98.069941100009601,95.777052716790422,0,1.977530074420429,.181979300930834,3.909390979089949,.303111033750611,5.857208581590385h-.303111033750611v103.356484206829919H183.106354434479726v-103.356484206829919h-.303111033750611c.121131732821596-1.947817602500436,.303111033750611-3.879678507169956,.303111033750611-5.857208581590385Z" style="fill: #acc9e7;"/>
        <path d="M141.634622537208998,306.81723215018792c0,31.258327808678587-25.339881394058466,56.598209202738872-56.598209202729777,56.598209202758881-31.258327808658578-.000000000020009-56.598209202738872-25.339881394080294-56.598209202738872-56.598209202758881,.000000000020009-31.258327808651302,25.339881394080294-56.598209202709768,56.598209202698854-56.598209202709768,31.258327808671311,0,56.598209202751605,25.339881394078475,56.598209202769795,56.598209202709768Z" style="fill: #acc9e7;"/>
        <circle cx="262.330484482459724" cy="261.104091840396904" r="83.423189318577073" style="fill: #14a0db;"/>
        <path d="M258.198973774189653,329.302257061837736c-80.992774911710512,2.327732278308758-151.990067766009815,70.020913260208545-172.614987699778794,165.437805554480292-.182364277990928,48.555390990179149-.365208461951624,97.11049439297858-.547572739931638,145.665885383159548H439.624555630460236v-145.665885383159548c-21.492589972151109-99.190901521871638-97.291822209330348-167.855840271080524-181.425581856270583-165.437805554480292Z" style="fill: #14a0db;"/>
      </g>
      <rect x="186.853124460960316" y="615.280086290107647" width="145.367800908548816" height="37.30786868514042" style="fill: #acc9e7;"/>
    </g>
  </g>
  <path d="M71.905634454249594,425.22242198247659l64.382912764989669,73.125516024141689,92.709706756089872,105.299392974349757c1.63559037889172,1.929870075178769,13.509442114900594,15.460759097470145,33.3661140471213,15.445289197059537,19.816590826640095-.015469900399694,31.658096407269113-13.509793703549803,33.298609027198836-15.445289197059537l92.710409933381015-105.299392974349757,64.382209587700345-73.125516024141689" style="fill: none; stroke: #acc9e7; stroke-miterlimit: 10; stroke-width: 24px;"/>
</svg>