<?xml version="1.0" encoding="UTF-8"?>
<svg id="Layer_1" data-name="Layer 1" xmlns="http://www.w3.org/2000/svg" viewBox="0 0 1688.970703125 552.598632812498181">
  <g>
    <path d="M106.6455078125,551.398437499998181l8.2998046875-18.80078125-20.5-47.7998046875h8.7998046875l16.1005859375,39.3994140625,16.19921875-39.3994140625h8.5l-28.8994140625,66.6005859375h-8.5Z" style="fill: #fff;"/>
    <path d="M171.9453125,534.297851562498181c-4.734375,0-8.833984375-1.0322265625-12.2998046875-3.1005859375-3.466796875-2.064453125-6.150390625-4.982421875-8.0498046875-8.75-1.900390625-3.765625-2.8505859375-8.21484375-2.8505859375-13.349609375,0-5.1328125,.9501953125-9.58203125,2.8505859375-13.349609375,1.8994140625-3.765625,4.5830078125-6.68359375,8.0498046875-8.75,3.4658203125-2.06640625,7.5654296875-3.099609375,12.2998046875-3.099609375,4.666015625,0,8.75,1.033203125,12.25,3.099609375s6.2001953125,4.984375,8.1005859375,8.75c1.8994140625,3.767578125,2.849609375,8.216796875,2.849609375,13.349609375,0,5.134765625-.9501953125,9.583984375-2.849609375,13.349609375-1.900390625,3.767578125-4.6005859375,6.685546875-8.1005859375,8.75-3.5,2.068359375-7.583984375,3.1005859375-12.25,3.1005859375Zm0-6.5c4.533203125,0,8.166015625-1.6162109375,10.900390625-4.8505859375,2.732421875-3.232421875,4.099609375-7.849609375,4.099609375-13.849609375,0-6.0654296875-1.3671875-10.69921875-4.099609375-13.900390625-2.734375-3.19921875-6.3671875-4.798828125-10.900390625-4.798828125-4.599609375,0-8.25,1.599609375-10.9501953125,4.798828125-2.69921875,3.201171875-4.0498046875,7.8349609375-4.0498046875,13.900390625,0,6,1.3505859375,10.6171875,4.0498046875,13.849609375,2.7001953125,3.234375,6.3505859375,4.8505859375,10.9501953125,4.8505859375Z" style="fill: #fff;"/>
    <path d="M224.5458984375,534.297851562498181c-11.6669921875,0-17.5-6.4326171875-17.5-19.2998046875v-30.2001953125h8.1005859375v30.1005859375c0,4.333984375,.8828125,7.533203125,2.6494140625,9.599609375,1.765625,2.06640625,4.5498046875,3.099609375,8.3505859375,3.099609375,4.1328125,0,7.5-1.3828125,10.099609375-4.150390625,2.599609375-2.765625,3.900390625-6.44921875,3.900390625-11.048828125v-27.6005859375h8.099609375v48.6005859375h-7.900390625v-8.201171875c-1.5341796875,2.935546875-3.68359375,5.185546875-6.44921875,6.75-2.767578125,1.56640625-5.884765625,2.3505859375-9.3505859375,2.3505859375Z" style="fill: #fff;"/>
    <path d="M263.4443359375,533.398437499998181v-48.6005859375h7.900390625v8.7001953125c2.599609375-5.865234375,7.9326171875-9.099609375,16-9.7001953125l2.900390625-.2998046875,.599609375,7-5.099609375,.599609375c-4.6005859375,.400390625-8.1005859375,1.849609375-10.5,4.349609375-2.400390625,2.5-3.6005859375,5.91796875-3.6005859375,10.25v27.701171875h-8.2001953125Z" style="fill: #fff;"/>
    <path d="M345.5419921875,534.297851562498181c-4.8671875,0-9.0673828125-1.0498046875-12.6005859375-3.1494140625-3.5341796875-2.1005859375-6.25-5.06640625-8.1494140625-8.900390625-1.900390625-3.8330078125-2.8505859375-8.31640625-2.8505859375-13.4501953125,0-7.7333984375,2.1005859375-13.8154296875,6.30078125-18.25,4.19921875-4.4326171875,9.96484375-6.6494140625,17.2998046875-6.6494140625,3,0,5.9658203125,.533203125,8.8994140625,1.599609375s5.3662109375,2.56640625,7.30078125,4.5l-2.80078125,5.900390625c-1.93359375-1.8662109375-4.0498046875-3.2333984375-6.349609375-4.1005859375-2.2998046875-.8662109375-4.484375-1.2998046875-6.5498046875-1.2998046875-5.0673828125,0-8.9677734375,1.583984375-11.7001953125,4.75-2.734375,3.1669921875-4.099609375,7.716796875-4.099609375,13.650390625,0,5.798828125,1.365234375,10.3837890625,4.099609375,13.75,2.732421875,3.3671875,6.6328125,5.048828125,11.7001953125,5.048828125,2.0654296875,0,4.25-.431640625,6.5498046875-1.298828125,2.2998046875-.8662109375,4.416015625-2.265625,6.349609375-4.201171875l2.80078125,5.900390625c-1.9345703125,1.9345703125-4.384765625,3.4501953125-7.3505859375,4.55078125-2.966796875,1.099609375-5.9169921875,1.6494140625-8.849609375,1.6494140625Z" style="fill: #fff;"/>
    <path d="M390.4423828125,534.297851562498181c-4.734375,0-8.833984375-1.0322265625-12.2998046875-3.1005859375-3.466796875-2.064453125-6.150390625-4.982421875-8.0498046875-8.75-1.900390625-3.765625-2.8505859375-8.21484375-2.8505859375-13.349609375,0-5.1328125,.9501953125-9.58203125,2.8505859375-13.349609375,1.8994140625-3.765625,4.5830078125-6.68359375,8.0498046875-8.75,3.4658203125-2.06640625,7.5654296875-3.099609375,12.2998046875-3.099609375,4.666015625,0,8.75,1.033203125,12.25,3.099609375s6.2001953125,4.984375,8.1005859375,8.75c1.8994140625,3.767578125,2.849609375,8.216796875,2.849609375,13.349609375,0,5.134765625-.9501953125,9.583984375-2.849609375,13.349609375-1.900390625,3.767578125-4.6005859375,6.685546875-8.1005859375,8.75-3.5,2.068359375-7.583984375,3.1005859375-12.25,3.1005859375Zm0-6.5c4.533203125,0,8.166015625-1.6162109375,10.900390625-4.8505859375,2.732421875-3.232421875,4.099609375-7.849609375,4.099609375-13.849609375,0-6.0654296875-1.3671875-10.69921875-4.099609375-13.900390625-2.734375-3.19921875-6.3671875-4.798828125-10.900390625-4.798828125-4.599609375,0-8.25,1.599609375-10.9501953125,4.798828125-2.69921875,3.201171875-4.0498046875,7.8349609375-4.0498046875,13.900390625,0,6,1.3505859375,10.6171875,4.0498046875,13.849609375,2.7001953125,3.234375,6.3505859375,4.8505859375,10.9501953125,4.8505859375Z" style="fill: #fff;"/>
    <path d="M426.0419921875,533.398437499998181v-48.6005859375h7.900390625v8.2001953125c1.4658203125-2.93359375,3.5-5.18359375,6.099609375-6.75,2.6005859375-1.56640625,5.6328125-2.349609375,9.1005859375-2.349609375,7.599609375,0,12.46484375,3.298828125,14.599609375,9.8994140625,1.4658203125-3.0654296875,3.6328125-5.4833984375,6.5-7.25,2.865234375-1.765625,6.166015625-2.6494140625,9.900390625-2.6494140625,10.7998046875,0,16.19921875,6.3994140625,16.19921875,19.19921875v30.30078125h-8.099609375v-29.900390625c0-4.4658203125-.7841796875-7.75-2.349609375-9.849609375-1.5673828125-2.1005859375-4.150390625-3.150390625-7.75-3.150390625-3.9345703125,0-7.0673828125,1.400390625-9.400390625,4.19921875-2.333984375,2.80078125-3.5,6.53515625-3.5,11.201171875v27.5h-8.099609375v-29.900390625c0-4.4658203125-.78515625-7.75-2.3505859375-9.849609375-1.5673828125-2.1005859375-4.1494140625-3.150390625-7.75-3.150390625-4,0-7.1494140625,1.400390625-9.4501953125,4.19921875-2.2998046875,2.80078125-3.44921875,6.53515625-3.44921875,11.201171875v27.5h-8.1005859375Z" style="fill: #fff;"/>
    <path d="M514.041015625,533.398437499998181v-42.30078125h-9.6005859375v-6.2998046875h9.6005859375v-1.7001953125c0-6.46484375,1.615234375-11.365234375,4.849609375-14.69921875,3.2333984375-3.333984375,8.2158203125-5.201171875,14.9501953125-5.6005859375l3.900390625-.2001953125,.69921875,6.2001953125-4.599609375,.2998046875c-4.134765625,.333984375-7.1171875,1.5673828125-8.9501953125,3.7001953125-1.833984375,2.1337890625-2.75,5.234375-2.75,9.2998046875v2.7001953125h14v6.2998046875h-14v42.30078125h-8.099609375Z" style="fill: #fff;"/>
    <path d="M563.541015625,534.297851562498181c-4.734375,0-8.833984375-1.0322265625-12.2998046875-3.1005859375-3.466796875-2.064453125-6.150390625-4.982421875-8.0498046875-8.75-1.900390625-3.765625-2.8505859375-8.21484375-2.8505859375-13.349609375,0-5.1328125,.9501953125-9.58203125,2.8505859375-13.349609375,1.8994140625-3.765625,4.5830078125-6.68359375,8.0498046875-8.75,3.4658203125-2.06640625,7.5654296875-3.099609375,12.2998046875-3.099609375,4.666015625,0,8.75,1.033203125,12.25,3.099609375s6.2001953125,4.984375,8.1005859375,8.75c1.8994140625,3.767578125,2.849609375,8.216796875,2.849609375,13.349609375,0,5.134765625-.9501953125,9.583984375-2.849609375,13.349609375-1.900390625,3.767578125-4.6005859375,6.685546875-8.1005859375,8.75-3.5,2.068359375-7.583984375,3.1005859375-12.25,3.1005859375Zm0-6.5c4.533203125,0,8.166015625-1.6162109375,10.900390625-4.8505859375,2.732421875-3.232421875,4.099609375-7.849609375,4.099609375-13.849609375,0-6.0654296875-1.3671875-10.69921875-4.099609375-13.900390625-2.734375-3.19921875-6.3671875-4.798828125-10.900390625-4.798828125-4.599609375,0-8.25,1.599609375-10.9501953125,4.798828125-2.69921875,3.201171875-4.0498046875,7.8349609375-4.0498046875,13.900390625,0,6,1.3505859375,10.6171875,4.0498046875,13.849609375,2.7001953125,3.234375,6.3505859375,4.8505859375,10.9501953125,4.8505859375Z" style="fill: #fff;"/>
    <path d="M598.9404296875,533.398437499998181v-48.6005859375h7.900390625v8.7001953125c2.599609375-5.865234375,7.9326171875-9.099609375,16-9.7001953125l2.900390625-.2998046875,.599609375,7-5.099609375,.599609375c-4.6005859375,.400390625-8.1005859375,1.849609375-10.5,4.349609375-2.400390625,2.5-3.6005859375,5.91796875-3.6005859375,10.25v27.701171875h-8.2001953125Z" style="fill: #fff;"/>
    <path d="M656.837890625,534.297851562498181c-5.734375,0-10.0341796875-1.515625-12.8994140625-4.5498046875-2.8671875-3.033203125-4.2998046875-7.416015625-4.2998046875-13.150390625v-25.5h-9.5v-6.2998046875h9.5v-14.8994140625h8.099609375v14.8994140625h15.400390625v6.2998046875h-15.400390625v24.7001953125c0,3.7998046875,.7998046875,6.6845703125,2.400390625,8.6494140625,1.599609375,1.9677734375,4.19921875,2.951171875,7.7998046875,2.951171875,1.0654296875,0,2.1328125-.1328125,3.2001953125-.400390625,1.0654296875-.265625,2.0322265625-.533203125,2.8994140625-.80078125l1.400390625,6.201171875c-.8671875,.466796875-2.134765625,.8994140625-3.7998046875,1.298828125-1.66796875,.400390625-3.267578125,.6005859375-4.80078125,.6005859375Z" style="fill: #fff;"/>
    <path d="M687.6376953125,534.297851562498181c-3.3349609375,0-6.3173828125-.6494140625-8.9501953125-1.9501953125-2.634765625-1.2998046875-4.7177734375-3.08203125-6.25-5.349609375-1.5341796875-2.265625-2.2998046875-4.80078125-2.2998046875-7.599609375,0-3.533203125,.9150390625-6.333984375,2.75-8.400390625,1.83203125-2.06640625,4.865234375-3.55078125,9.099609375-4.4501953125,4.232421875-.8994140625,10.015625-1.3505859375,17.349609375-1.3505859375h3.2001953125v-3.099609375c0-4.1328125-.849609375-7.115234375-2.5498046875-8.94921875s-4.4169921875-2.75-8.150390625-2.75c-2.93359375,0-5.7666015625,.416015625-8.5,1.25-2.734375,.833984375-5.5341796875,2.18359375-8.3994140625,4.048828125l-2.7998046875-5.8994140625c2.5322265625-1.7998046875,5.615234375-3.2333984375,9.25-4.2998046875,3.6328125-1.06640625,7.115234375-1.599609375,10.44921875-1.599609375,6.265625,0,10.916015625,1.533203125,13.9501953125,4.599609375,3.033203125,3.06640625,4.5498046875,7.833984375,4.5498046875,14.2998046875v30.6005859375h-7.599609375v-8.400390625c-1.267578125,2.8671875-3.216796875,5.134765625-5.849609375,6.7998046875-2.634765625,1.6650390625-5.7177734375,2.5-9.25,2.5Zm1.2998046875-6.1005859375c4,0,7.265625-1.3828125,9.7998046875-4.1494140625,2.533203125-2.765625,3.7998046875-6.2822265625,3.7998046875-10.5498046875v-3h-3.099609375c-5.400390625,0-9.650390625,.25-12.75,.75-3.1005859375,.5-5.267578125,1.3671875-6.5,2.599609375-1.234375,1.234375-1.8505859375,2.91796875-1.8505859375,5.05078125,0,2.734375,.9501953125,4.966796875,2.8505859375,6.69921875,1.8994140625,1.734375,4.482421875,2.599609375,7.75,2.599609375Z" style="fill: #fff;"/>
    <path d="M749.9375,534.297851562498181c-3.8671875,0-7.25-.8671875-10.150390625-2.6005859375-2.8994140625-1.732421875-5.083984375-4.099609375-6.5498046875-7.099609375v8.80078125h-7.900390625v-70.5h8.1005859375v30.298828125c1.3994140625-2.865234375,3.5654296875-5.1328125,6.5-6.798828125,2.9326171875-1.666015625,6.265625-2.5,10-2.5,4.3330078125,0,8.115234375,1.0166015625,11.349609375,3.048828125,3.2333984375,2.03515625,5.7333984375,4.935546875,7.5,8.701171875,1.765625,3.7666015625,2.650390625,8.25,2.650390625,13.44921875,0,5.134765625-.884765625,9.583984375-2.650390625,13.349609375-1.7666015625,3.767578125-4.2666015625,6.685546875-7.5,8.75-3.234375,2.068359375-7.0166015625,3.1005859375-11.349609375,3.1005859375Zm-1.7001953125-6.5c4.533203125,0,8.166015625-1.6162109375,10.900390625-4.8505859375,2.732421875-3.232421875,4.099609375-7.849609375,4.099609375-13.849609375,0-6.0654296875-1.3671875-10.69921875-4.099609375-13.900390625-2.734375-3.19921875-6.3671875-4.798828125-10.900390625-4.798828125-4.5341796875,0-8.1669921875,1.599609375-10.900390625,4.798828125-2.734375,3.201171875-4.099609375,7.8349609375-4.099609375,13.900390625,0,6,1.365234375,10.6171875,4.099609375,13.849609375,2.7333984375,3.234375,6.3662109375,4.8505859375,10.900390625,4.8505859375Z" style="fill: #fff;"/>
    <path d="M798.5361328125,534.297851562498181c-4.9345703125,0-8.650390625-1.4501953125-11.150390625-4.3505859375-2.5-2.8994140625-3.75-7.115234375-3.75-12.6494140625v-54.3994140625h8.1005859375v53.798828125c0,7.134765625,2.8330078125,10.701171875,8.5,10.701171875,1.6650390625,0,3.1650390625-.201171875,4.5-.6005859375l-.2001953125,6.7998046875c-2.0673828125,.4658203125-4.0673828125,.7001953125-6,.7001953125Z" style="fill: #fff;"/>
    <path d="M834.63671875,534.297851562498181c-7.6669921875,0-13.734375-2.25-18.2001953125-6.75-4.466796875-4.5-6.7001953125-10.6162109375-6.7001953125-18.3505859375,0-5,1-9.4150390625,3-13.25,2-3.83203125,4.75-6.798828125,8.25-8.8994140625s7.55078125-3.1494140625,12.150390625-3.1494140625c6.599609375,0,11.765625,2.1171875,15.5,6.349609375,3.732421875,4.234375,5.599609375,10.0498046875,5.599609375,17.44921875v3.1005859375h-36.599609375c.265625,5.5341796875,1.865234375,9.75,4.7998046875,12.6494140625,2.9326171875,2.900390625,7,4.3505859375,12.2001953125,4.3505859375,2.9326171875,0,5.732421875-.4501953125,8.400390625-1.3505859375,2.6650390625-.8994140625,5.19921875-2.3828125,7.599609375-4.44921875l2.7998046875,5.69921875c-2.2001953125,2.068359375-5,3.685546875-8.3994140625,4.8505859375-3.400390625,1.1650390625-6.8671875,1.75-10.400390625,1.75Zm-1.2998046875-44.3994140625c-4.6005859375,0-8.234375,1.43359375-10.900390625,4.298828125-2.6669921875,2.8671875-4.234375,6.634765625-4.7001953125,11.30078125h29.5c-.19921875-4.93359375-1.484375-8.765625-3.849609375-11.5-2.3671875-2.732421875-5.716796875-4.099609375-10.0498046875-4.099609375Z" style="fill: #fff;"/>
    <path d="M913.134765625,552.297851562498181c-4.19921875,0-8.1494140625-.5498046875-11.849609375-1.6494140625-3.7001953125-1.1005859375-6.984375-2.75-9.849609375-4.951171875l2.69921875-5.8994140625c3,2.1328125,5.9833984375,3.6650390625,8.9501953125,4.6005859375,2.9658203125,.931640625,6.1826171875,1.3994140625,9.650390625,1.3994140625,9.599609375,0,14.3994140625-4.9345703125,14.3994140625-14.7998046875v-8.599609375c-1.3994140625,3.06640625-3.583984375,5.484375-6.5498046875,7.25-2.966796875,1.7666015625-6.349609375,2.6494140625-10.1494140625,2.6494140625-4.4677734375,0-8.3349609375-1.0322265625-11.6005859375-3.1005859375-3.2666015625-2.064453125-5.7841796875-4.9150390625-7.5498046875-8.548828125-1.767578125-3.6328125-2.650390625-7.8505859375-2.650390625-12.650390625,0-4.80078125,.8828125-9.015625,2.650390625-12.650390625,1.765625-3.6328125,4.283203125-6.44921875,7.5498046875-8.44921875,3.265625-2,7.1328125-3,11.6005859375-3,3.7998046875,0,7.1826171875,.8671875,10.1494140625,2.599609375,2.9658203125,1.734375,5.150390625,4.099609375,6.5498046875,7.099609375v-8.7998046875h7.900390625v45.1005859375c0,7.46484375-1.849609375,13.064453125-5.5498046875,16.798828125-3.7001953125,3.7333984375-9.150390625,5.6005859375-16.3505859375,5.6005859375Zm-1.19921875-26.6005859375c4.6650390625,0,8.365234375-1.599609375,11.099609375-4.798828125,2.732421875-3.201171875,4.099609375-7.5,4.099609375-12.900390625s-1.3671875-9.68359375-4.099609375-12.849609375c-2.734375-3.166015625-6.4345703125-4.75-11.099609375-4.75-4.6005859375,0-8.267578125,1.583984375-11,4.75-2.734375,3.166015625-4.1005859375,7.44921875-4.1005859375,12.849609375s1.3662109375,9.69921875,4.1005859375,12.900390625c2.732421875,3.19921875,6.3994140625,4.798828125,11,4.798828125Z" style="fill: #fff;"/>
    <path d="M965.53515625,534.297851562498181c-3.3349609375,0-6.3173828125-.6494140625-8.9501953125-1.9501953125-2.634765625-1.2998046875-4.7177734375-3.08203125-6.25-5.349609375-1.5341796875-2.265625-2.2998046875-4.80078125-2.2998046875-7.599609375,0-3.533203125,.9150390625-6.333984375,2.75-8.400390625,1.83203125-2.06640625,4.865234375-3.55078125,9.099609375-4.4501953125,4.232421875-.8994140625,10.015625-1.3505859375,17.349609375-1.3505859375h3.2001953125v-3.099609375c0-4.1328125-.849609375-7.115234375-2.5498046875-8.94921875s-4.4169921875-2.75-8.150390625-2.75c-2.93359375,0-5.7666015625,.416015625-8.5,1.25-2.734375,.833984375-5.5341796875,2.18359375-8.3994140625,4.048828125l-2.7998046875-5.8994140625c2.5322265625-1.7998046875,5.615234375-3.2333984375,9.25-4.2998046875,3.6328125-1.06640625,7.115234375-1.599609375,10.44921875-1.599609375,6.265625,0,10.916015625,1.533203125,13.9501953125,4.599609375,3.033203125,3.06640625,4.5498046875,7.833984375,4.5498046875,14.2998046875v30.6005859375h-7.599609375v-8.400390625c-1.267578125,2.8671875-3.216796875,5.134765625-5.849609375,6.7998046875-2.634765625,1.6650390625-5.7177734375,2.5-9.25,2.5Zm1.2998046875-6.1005859375c4,0,7.265625-1.3828125,9.7998046875-4.1494140625,2.533203125-2.765625,3.7998046875-6.2822265625,3.7998046875-10.5498046875v-3h-3.099609375c-5.400390625,0-9.650390625,.25-12.75,.75-3.1005859375,.5-5.267578125,1.3671875-6.5,2.599609375-1.234375,1.234375-1.8505859375,2.91796875-1.8505859375,5.05078125,0,2.734375,.9501953125,4.966796875,2.8505859375,6.69921875,1.8994140625,1.734375,4.482421875,2.599609375,7.75,2.599609375Z" style="fill: #fff;"/>
    <path d="M1022.734375,534.297851562498181c-5.734375,0-10.0341796875-1.515625-12.8994140625-4.5498046875-2.8671875-3.033203125-4.2998046875-7.416015625-4.2998046875-13.150390625v-25.5h-9.5v-6.2998046875h9.5v-14.8994140625h8.099609375v14.8994140625h15.400390625v6.2998046875h-15.400390625v24.7001953125c0,3.7998046875,.7998046875,6.6845703125,2.400390625,8.6494140625,1.599609375,1.9677734375,4.19921875,2.951171875,7.7998046875,2.951171875,1.0654296875,0,2.1328125-.1328125,3.2001953125-.400390625,1.0654296875-.265625,2.0322265625-.533203125,2.8994140625-.80078125l1.400390625,6.201171875c-.8671875,.466796875-2.134765625,.8994140625-3.7998046875,1.298828125-1.66796875,.400390625-3.267578125,.6005859375-4.80078125,.6005859375Z" style="fill: #fff;"/>
    <path d="M1038.2333984375,533.398437499998181v-70.5h8.1005859375v29.8994140625c1.599609375-2.9326171875,3.849609375-5.1494140625,6.75-6.6494140625,2.8994140625-1.5,6.1494140625-2.25,9.75-2.25,11.5322265625,0,17.2998046875,6.3994140625,17.2998046875,19.19921875v30.30078125h-8.099609375v-29.80078125c0-4.533203125-.884765625-7.849609375-2.650390625-9.94921875-1.767578125-2.1005859375-4.583984375-3.150390625-8.4501953125-3.150390625-4.466796875,0-8.0166015625,1.384765625-10.6494140625,4.150390625-2.634765625,2.7666015625-3.9501953125,6.44921875-3.9501953125,11.048828125v27.701171875h-8.1005859375Z" style="fill: #fff;"/>
    <path d="M1116.93359375,534.297851562498181c-7.6669921875,0-13.734375-2.25-18.2001953125-6.75-4.466796875-4.5-6.7001953125-10.6162109375-6.7001953125-18.3505859375,0-5,1-9.4150390625,3-13.25,2-3.83203125,4.75-6.798828125,8.25-8.8994140625s7.55078125-3.1494140625,12.150390625-3.1494140625c6.599609375,0,11.765625,2.1171875,15.5,6.349609375,3.732421875,4.234375,5.599609375,10.0498046875,5.599609375,17.44921875v3.1005859375h-36.599609375c.265625,5.5341796875,1.865234375,9.75,4.7998046875,12.6494140625,2.9326171875,2.900390625,7,4.3505859375,12.2001953125,4.3505859375,2.9326171875,0,5.732421875-.4501953125,8.400390625-1.3505859375,2.6650390625-.8994140625,5.19921875-2.3828125,7.599609375-4.44921875l2.7998046875,5.69921875c-2.2001953125,2.068359375-5,3.685546875-8.3994140625,4.8505859375-3.400390625,1.1650390625-6.8671875,1.75-10.400390625,1.75Zm-1.2998046875-44.3994140625c-4.6005859375,0-8.234375,1.43359375-10.900390625,4.298828125-2.6669921875,2.8671875-4.234375,6.634765625-4.7001953125,11.30078125h29.5c-.19921875-4.93359375-1.484375-8.765625-3.849609375-11.5-2.3671875-2.732421875-5.716796875-4.099609375-10.0498046875-4.099609375Z" style="fill: #fff;"/>
    <path d="M1148.232421875,533.398437499998181v-48.6005859375h7.900390625v8.7001953125c2.599609375-5.865234375,7.9326171875-9.099609375,16-9.7001953125l2.900390625-.2998046875,.599609375,7-5.099609375,.599609375c-4.6005859375,.400390625-8.1005859375,1.849609375-10.5,4.349609375-2.400390625,2.5-3.6005859375,5.91796875-3.6005859375,10.25v27.701171875h-8.2001953125Z" style="fill: #fff;"/>
    <path d="M1183.03125,472.697265624998181v-9.099609375h10v9.099609375h-10Zm1,60.701171875v-48.6005859375h8.1005859375v48.6005859375h-8.1005859375Z" style="fill: #fff;"/>
    <path d="M1207.23046875,533.398437499998181v-48.6005859375h7.900390625v8.2998046875c1.599609375-3.0654296875,3.865234375-5.365234375,6.7998046875-6.900390625,2.9326171875-1.5322265625,6.2333984375-2.298828125,9.900390625-2.298828125,11.5322265625,0,17.2998046875,6.3994140625,17.2998046875,19.19921875v30.30078125h-8.099609375v-29.80078125c0-4.533203125-.884765625-7.849609375-2.650390625-9.94921875-1.767578125-2.1005859375-4.583984375-3.150390625-8.4501953125-3.150390625-4.466796875,0-8.0166015625,1.384765625-10.6494140625,4.150390625-2.634765625,2.7666015625-3.9501953125,6.44921875-3.9501953125,11.048828125v27.701171875h-8.1005859375Z" style="fill: #fff;"/>
    <path d="M1285.5302734375,552.297851562498181c-4.19921875,0-8.1494140625-.5498046875-11.849609375-1.6494140625-3.7001953125-1.1005859375-6.984375-2.75-9.849609375-4.951171875l2.69921875-5.8994140625c3,2.1328125,5.9833984375,3.6650390625,8.9501953125,4.6005859375,2.9658203125,.931640625,6.1826171875,1.3994140625,9.650390625,1.3994140625,9.599609375,0,14.3994140625-4.9345703125,14.3994140625-14.7998046875v-8.599609375c-1.3994140625,3.06640625-3.583984375,5.484375-6.5498046875,7.25-2.966796875,1.7666015625-6.349609375,2.6494140625-10.1494140625,2.6494140625-4.4677734375,0-8.3349609375-1.0322265625-11.6005859375-3.1005859375-3.2666015625-2.064453125-5.7841796875-4.9150390625-7.5498046875-8.548828125-1.767578125-3.6328125-2.650390625-7.8505859375-2.650390625-12.650390625,0-4.80078125,.8828125-9.015625,2.650390625-12.650390625,1.765625-3.6328125,4.283203125-6.44921875,7.5498046875-8.44921875,3.265625-2,7.1328125-3,11.6005859375-3,3.7998046875,0,7.1826171875,.8671875,10.1494140625,2.599609375,2.9658203125,1.734375,5.150390625,4.099609375,6.5498046875,7.099609375v-8.7998046875h7.900390625v45.1005859375c0,7.46484375-1.849609375,13.064453125-5.5498046875,16.798828125-3.7001953125,3.7333984375-9.150390625,5.6005859375-16.3505859375,5.6005859375Zm-1.19921875-26.6005859375c4.6650390625,0,8.365234375-1.599609375,11.099609375-4.798828125,2.732421875-3.201171875,4.099609375-7.5,4.099609375-12.900390625s-1.3671875-9.68359375-4.099609375-12.849609375c-2.734375-3.166015625-6.4345703125-4.75-11.099609375-4.75-4.6005859375,0-8.267578125,1.583984375-11,4.75-2.734375,3.166015625-4.1005859375,7.44921875-4.1005859375,12.849609375s1.3662109375,9.69921875,4.1005859375,12.900390625c2.732421875,3.19921875,6.3994140625,4.798828125,11,4.798828125Z" style="fill: #fff;"/>
    <path d="M1364.7294921875,534.297851562498181c-3.7998046875,0-7.400390625-.5341796875-10.7998046875-1.6005859375-3.400390625-1.064453125-6.2001953125-2.564453125-8.400390625-4.5l2.6005859375-5.69921875c2.3994140625,1.93359375,5.0498046875,3.349609375,7.94921875,4.25,2.900390625,.900390625,5.8505859375,1.349609375,8.8505859375,1.349609375,3.7998046875,0,6.6650390625-.69921875,8.599609375-2.099609375,1.9326171875-1.400390625,2.900390625-3.30078125,2.900390625-5.7001953125,0-1.8662109375-.634765625-3.3505859375-1.900390625-4.4501953125-1.2666015625-1.099609375-3.2666015625-1.94921875-6-2.5498046875l-9.099609375-2c-8.267578125-1.7998046875-12.400390625-6.0654296875-12.400390625-12.7998046875,0-4.400390625,1.75-7.93359375,5.25-10.599609375s8.0830078125-4,13.75-4c3.3330078125,0,6.515625,.5166015625,9.5498046875,1.548828125,3.033203125,1.03515625,5.55078125,2.55078125,7.55078125,4.55078125l-2.7001953125,5.69921875c-1.9345703125-1.798828125-4.1845703125-3.181640625-6.75-4.1494140625-2.5673828125-.9658203125-5.1171875-1.4501953125-7.650390625-1.4501953125-3.734375,0-6.5673828125,.734375-8.5,2.2001953125-1.9345703125,1.4677734375-2.8994140625,3.3994140625-2.8994140625,5.7998046875,0,3.734375,2.46484375,6.134765625,7.3994140625,7.2001953125l9.1005859375,1.8994140625c4.265625,.935546875,7.5,2.41796875,9.69921875,4.451171875,2.2001953125,2.033203125,3.30078125,4.783203125,3.30078125,8.25,0,4.466796875-1.767578125,7.984375-5.30078125,10.548828125-3.5341796875,2.568359375-8.234375,3.8505859375-14.099609375,3.8505859375Z" style="fill: #fff;"/>
    <path d="M1396.427734375,551.398437499998181v-66.6005859375h7.900390625v8.7001953125c1.4658203125-3,3.650390625-5.349609375,6.5498046875-7.05078125,2.900390625-1.69921875,6.283203125-2.548828125,10.150390625-2.548828125,4.3330078125,0,8.115234375,1.0166015625,11.349609375,3.048828125,3.2333984375,2.03515625,5.7333984375,4.935546875,7.5,8.701171875,1.765625,3.7666015625,2.650390625,8.25,2.650390625,13.44921875,0,5.134765625-.884765625,9.583984375-2.650390625,13.349609375-1.7666015625,3.767578125-4.2666015625,6.685546875-7.5,8.75-3.234375,2.068359375-7.0166015625,3.1005859375-11.349609375,3.1005859375-3.734375,0-7.0673828125-.8349609375-10-2.5-2.9345703125-1.6650390625-5.1005859375-3.9658203125-6.5-6.8994140625v26.5h-8.1005859375Zm22.900390625-23.6005859375c4.533203125,0,8.166015625-1.6162109375,10.900390625-4.8505859375,2.732421875-3.232421875,4.099609375-7.849609375,4.099609375-13.849609375,0-6.0654296875-1.3671875-10.69921875-4.099609375-13.900390625-2.734375-3.19921875-6.3671875-4.798828125-10.900390625-4.798828125-4.5341796875,0-8.1669921875,1.599609375-10.900390625,4.798828125-2.734375,3.201171875-4.099609375,7.8349609375-4.099609375,13.900390625,0,6,1.365234375,10.6171875,4.099609375,13.849609375,2.7333984375,3.234375,6.3662109375,4.8505859375,10.900390625,4.8505859375Z" style="fill: #fff;"/>
    <path d="M1470.02734375,534.297851562498181c-3.3349609375,0-6.3173828125-.6494140625-8.9501953125-1.9501953125-2.634765625-1.2998046875-4.7177734375-3.08203125-6.25-5.349609375-1.5341796875-2.265625-2.2998046875-4.80078125-2.2998046875-7.599609375,0-3.533203125,.9150390625-6.333984375,2.75-8.400390625,1.83203125-2.06640625,4.865234375-3.55078125,9.099609375-4.4501953125,4.232421875-.8994140625,10.015625-1.3505859375,17.349609375-1.3505859375h3.2001953125v-3.099609375c0-4.1328125-.849609375-7.115234375-2.5498046875-8.94921875s-4.4169921875-2.75-8.150390625-2.75c-2.93359375,0-5.7666015625,.416015625-8.5,1.25-2.734375,.833984375-5.5341796875,2.18359375-8.3994140625,4.048828125l-2.7998046875-5.8994140625c2.5322265625-1.7998046875,5.615234375-3.2333984375,9.25-4.2998046875,3.6328125-1.06640625,7.115234375-1.599609375,10.44921875-1.599609375,6.265625,0,10.916015625,1.533203125,13.9501953125,4.599609375,3.033203125,3.06640625,4.5498046875,7.833984375,4.5498046875,14.2998046875v30.6005859375h-7.599609375v-8.400390625c-1.267578125,2.8671875-3.216796875,5.134765625-5.849609375,6.7998046875-2.634765625,1.6650390625-5.7177734375,2.5-9.25,2.5Zm1.2998046875-6.1005859375c4,0,7.265625-1.3828125,9.7998046875-4.1494140625,2.533203125-2.765625,3.7998046875-6.2822265625,3.7998046875-10.5498046875v-3h-3.099609375c-5.400390625,0-9.650390625,.25-12.75,.75-3.1005859375,.5-5.267578125,1.3671875-6.5,2.599609375-1.234375,1.234375-1.8505859375,2.91796875-1.8505859375,5.05078125,0,2.734375,.9501953125,4.966796875,2.8505859375,6.69921875,1.8994140625,1.734375,4.482421875,2.599609375,7.75,2.599609375Z" style="fill: #fff;"/>
    <path d="M1528.3271484375,534.297851562498181c-4.8671875,0-9.0673828125-1.0498046875-12.6005859375-3.1494140625-3.5341796875-2.1005859375-6.25-5.06640625-8.1494140625-8.900390625-1.900390625-3.8330078125-2.8505859375-8.31640625-2.8505859375-13.4501953125,0-7.7333984375,2.1005859375-13.8154296875,6.30078125-18.25,4.19921875-4.4326171875,9.96484375-6.6494140625,17.2998046875-6.6494140625,3,0,5.9658203125,.533203125,8.8994140625,1.599609375s5.3662109375,2.56640625,7.30078125,4.5l-2.80078125,5.900390625c-1.93359375-1.8662109375-4.0498046875-3.2333984375-6.349609375-4.1005859375-2.2998046875-.8662109375-4.484375-1.2998046875-6.5498046875-1.2998046875-5.0673828125,0-8.9677734375,1.583984375-11.7001953125,4.75-2.734375,3.1669921875-4.099609375,7.716796875-4.099609375,13.650390625,0,5.798828125,1.365234375,10.3837890625,4.099609375,13.75,2.732421875,3.3671875,6.6328125,5.048828125,11.7001953125,5.048828125,2.0654296875,0,4.25-.431640625,6.5498046875-1.298828125,2.2998046875-.8662109375,4.416015625-2.265625,6.349609375-4.201171875l2.80078125,5.900390625c-1.9345703125,1.9345703125-4.384765625,3.4501953125-7.3505859375,4.55078125-2.966796875,1.099609375-5.9169921875,1.6494140625-8.849609375,1.6494140625Z" style="fill: #fff;"/>
    <path d="M1574.927734375,534.297851562498181c-7.6669921875,0-13.734375-2.25-18.2001953125-6.75-4.466796875-4.5-6.7001953125-10.6162109375-6.7001953125-18.3505859375,0-5,1-9.4150390625,3-13.25,2-3.83203125,4.75-6.798828125,8.25-8.8994140625s7.55078125-3.1494140625,12.150390625-3.1494140625c6.599609375,0,11.765625,2.1171875,15.5,6.349609375,3.732421875,4.234375,5.599609375,10.0498046875,5.599609375,17.44921875v3.1005859375h-36.599609375c.265625,5.5341796875,1.865234375,9.75,4.7998046875,12.6494140625,2.9326171875,2.900390625,7,4.3505859375,12.2001953125,4.3505859375,2.9326171875,0,5.732421875-.4501953125,8.400390625-1.3505859375,2.6650390625-.8994140625,5.19921875-2.3828125,7.599609375-4.44921875l2.7998046875,5.69921875c-2.2001953125,2.068359375-5,3.685546875-8.3994140625,4.8505859375-3.400390625,1.1650390625-6.8671875,1.75-10.400390625,1.75Zm-1.2998046875-44.3994140625c-4.6005859375,0-8.234375,1.43359375-10.900390625,4.298828125-2.6669921875,2.8671875-4.234375,6.634765625-4.7001953125,11.30078125h29.5c-.19921875-4.93359375-1.484375-8.765625-3.849609375-11.5-2.3671875-2.732421875-5.716796875-4.099609375-10.0498046875-4.099609375Z" style="fill: #fff;"/>
  </g>
  <g>
    <path d="M125.71875,380.1552734375c18.1875,0,34.62890625-7.130859375,49.3271484375-21.3896484375,15.2783203125-14.5517578125,22.91796875-31.5009765625,22.91796875-50.8544921875-16.587890625,24.0087890625-40.671875,36.0126953125-72.2451171875,36.0126953125-34.6318359375,0-64.244140625-12.2939453125-88.8330078125-36.8857421875C12.2939453125,282.44921875,0,252.8369140625,0,218.205078125c0-34.6279296875,12.2939453125-64.240234375,36.8857421875-88.83203125,24.5888671875-24.5888671875,54.201171875-36.88671875,88.8330078125-36.88671875,34.4853515625,0,64.0224609375,12.22265625,88.6142578125,36.66796875,24.5888671875,24.302734375,36.9580078125,53.8388671875,37.1044921875,88.6142578125v90.142578125c0,34.0478515625-13.1708984375,63.7314453125-39.5048828125,89.0498046875-25.4658203125,24.4453125-54.2041015625,36.66796875-86.2138671875,36.66796875-49.037109375,0-85.7763671875-19.0634765625-110.2216796875-57.18359375-2.9130859375-4.5126953125-4.365234375-9.16796875-4.365234375-13.96875,0-2.9130859375,.5078125-5.822265625,1.52734375-8.73046875,2.619140625-8.1513671875,8.0009765625-13.67578125,16.1513671875-16.587890625l.6552734375-.21875c3.634765625-1.3095703125,7.126953125-1.96484375,10.4765625-1.96484375,8.146484375,0,14.984375,4.076171875,20.515625,12.22265625,14.40625,21.9697265625,36.1572265625,32.9580078125,65.2607421875,32.9580078125Zm72.2451171875-163.259765625c-.2939453125-19.6435546875-7.49609375-36.3740234375-21.6083984375-50.2001953125-13.96875-13.822265625-30.849609375-20.734375-50.63671875-20.734375-20.080078125,0-37.1796875,7.0595703125-51.2919921875,21.1708984375-13.96875,14.115234375-20.953125,31.1396484375-20.953125,51.0732421875,0,20.080078125,6.984375,37.1796875,20.953125,51.2919921875,14.1123046875,13.96875,31.2119140625,20.953125,51.2919921875,20.953125s37.1044921875-6.984375,51.0732421875-20.953125c14.1123046875-14.1123046875,21.171875-31.2119140625,21.171875-51.2919921875v-1.3095703125Z" style="fill: #fff;"/>
    <path d="M500.7001953125,129.373046875c24.5888671875,24.591796875,36.88671875,54.2041015625,36.88671875,88.83203125v99.3095703125c0,7.4208984375-2.619140625,13.607421875-7.857421875,18.5517578125-5.23828125,5.23828125-11.4248046875,7.857421875-18.552734375,7.857421875h-.654296875c-7.130859375,0-13.314453125-2.619140625-18.552734375-7.857421875-5.23828125-4.9443359375-7.857421875-11.130859375-7.857421875-18.5517578125-16.587890625,17.607421875-40.6708984375,26.4091796875-72.244140625,26.4091796875-34.6318359375,0-64.244140625-12.2939453125-88.83203125-36.8857421875-24.5927734375-24.5888671875-36.88671875-54.201171875-36.88671875-88.8330078125,0-34.6279296875,12.2939453125-64.240234375,36.88671875-88.83203125,24.587890625-24.5888671875,54.2001953125-36.88671875,88.83203125-36.88671875,34.62890625,0,64.240234375,12.2978515625,88.83203125,36.88671875Zm-140.123046875,37.7587890625c-13.96875,14.115234375-20.953125,31.1396484375-20.953125,51.0732421875,0,20.080078125,6.984375,37.1796875,20.953125,51.2919921875,14.111328125,13.96875,31.2109375,20.953125,51.291015625,20.953125s37.1044921875-6.984375,51.0732421875-20.953125c14.1123046875-14.1123046875,21.1708984375-31.2119140625,21.1708984375-51.2919921875,0-19.93359375-7.05859375-36.9580078125-21.1708984375-51.0732421875-14.115234375-14.111328125-31.1396484375-21.1708984375-51.0732421875-21.1708984375-20.080078125,0-37.1796875,7.0595703125-51.291015625,21.1708984375Z" style="fill: #fff;"/>
    <path d="M599.3642578125,2.9990234375c7.1279296875,0,13.314453125,2.5478515625,18.552734375,7.6396484375,5.23828125,5.23828125,7.857421875,11.49609375,7.857421875,18.7705078125v63.0771484375h32.73828125c7.1279296875,0,13.314453125,2.619140625,18.552734375,7.857421875s7.857421875,11.49609375,7.857421875,18.7705078125v.4365234375c0,7.4208984375-2.619140625,13.607421875-7.857421875,18.552734375-5.23828125,5.23828125-11.4248046875,7.857421875-18.552734375,7.857421875h-32.73828125v129.4287109375c0,4.22265625,1.4521484375,7.7861328125,4.365234375,10.6953125,2.908203125,2.912109375,6.546875,4.365234375,10.912109375,4.365234375h17.4609375c7.1279296875,0,13.314453125,2.619140625,18.552734375,7.857421875s7.857421875,11.49609375,7.857421875,18.7705078125v.4365234375c0,7.4208984375-2.619140625,13.607421875-7.857421875,18.5517578125-5.23828125,5.23828125-11.4248046875,7.857421875-18.552734375,7.857421875h-17.4609375c-18.9169921875,0-35.1396484375-6.69140625-48.671875-20.080078125-13.388671875-13.5322265625-20.080078125-29.68359375-20.080078125-48.4541015625V29.4091796875c0-7.2744140625,2.619140625-13.5322265625,7.857421875-18.7705078125,5.23828125-5.091796875,11.4208984375-7.6396484375,18.552734375-7.6396484375h.654296875Z" style="fill: #fff;"/>
    <path d="M733.603515625,2.9990234375c7.1279296875,0,13.314453125,2.5478515625,18.552734375,7.6396484375,5.23828125,5.23828125,7.857421875,11.49609375,7.857421875,18.7705078125V105.3642578125c11.4921875-8.583984375,28.8818359375-12.8779296875,52.1640625-12.8779296875,28.9541015625,0,53.763671875,10.333984375,74.427734375,30.9931640625,20.6591796875,20.6630859375,30.9921875,45.544921875,30.9921875,74.6455078125v119.3896484375c0,7.4208984375-2.619140625,13.607421875-7.857421875,18.5517578125-4.9482421875,5.23828125-11.130859375,7.857421875-18.5517578125,7.857421875h-.4365234375c-7.27734375,0-13.5322265625-2.619140625-18.7705078125-7.857421875-5.23828125-4.9443359375-7.857421875-11.130859375-7.857421875-18.5517578125v-119.3896484375c0-14.4052734375-5.0205078125-26.69921875-15.0595703125-36.8857421875-10.1875-10.18359375-22.4814453125-15.2783203125-36.88671875-15.2783203125-14.5517578125,0-26.9208984375,5.0947265625-37.1044921875,15.2783203125-10.0400390625,10.1865234375-15.0595703125,22.48046875-15.0595703125,36.8857421875v119.3896484375c0,7.4208984375-2.619140625,13.607421875-7.857421875,18.5517578125-5.23828125,5.23828125-11.4248046875,7.857421875-18.552734375,7.857421875h-.654296875c-7.1318359375,0-13.314453125-2.619140625-18.552734375-7.857421875-5.23828125-4.9443359375-7.857421875-11.130859375-7.857421875-18.5517578125V29.4091796875c0-7.2744140625,2.619140625-13.5322265625,7.857421875-18.7705078125,5.23828125-5.091796875,11.4208984375-7.6396484375,18.552734375-7.6396484375h.654296875Z" style="fill: #fff;"/>
    <path d="M1185.6328125,165.822265625c1.74609375,3.638671875,2.619140625,7.349609375,2.619140625,11.1318359375,0,3.0556640625-.583984375,6.111328125-1.74609375,9.1669921875-2.4765625,6.8408203125-7.1318359375,11.7861328125-13.96875,14.841796875-20.3740234375,9.1669921875-47.14453125,21.24609375-80.3203125,36.2314453125-41.1806640625,18.626953125-65.3359375,29.611328125-72.462890625,32.95703125,11.0556640625,13.96875,28.298828125,20.953125,51.7275390625,20.953125,15.568359375,0,29.68359375-4.5830078125,42.3427734375-13.75,12.3662109375-9.0205078125,21.0244140625-20.66015625,25.97265625-34.921875,4.21875-11.9296875,12.66015625-17.8974609375,25.318359375-17.8974609375,9.0205078125,0,16.2236328125,3.78515625,21.6083984375,11.349609375,3.345703125,4.658203125,5.0205078125,9.53125,5.0205078125,14.623046875,0,3.0556640625-.583984375,6.1865234375-1.74609375,9.3857421875-8.587890625,24.8818359375-23.6474609375,44.9619140625-45.1806640625,60.240234375-21.826171875,15.861328125-46.271484375,23.7900390625-73.3359375,23.7900390625-34.6318359375,0-64.244140625-12.2939453125-88.8330078125-36.8857421875-24.591796875-24.5888671875-36.8857421875-54.201171875-36.8857421875-88.8330078125,0-34.6279296875,12.2939453125-64.240234375,36.8857421875-88.83203125,24.5888671875-24.5888671875,54.201171875-36.88671875,88.8330078125-36.88671875,25.025390625,0,47.87109375,6.841796875,68.5341796875,20.5166015625,20.5166015625,13.3896484375,35.7197265625,30.9931640625,45.6171875,52.8193359375Zm-114.1513671875-19.4248046875c-20.080078125,0-37.1796875,7.0595703125-51.2919921875,21.1708984375-13.96875,14.115234375-20.953125,31.2119140625-20.953125,51.2919921875v1.52734375l122.0087890625-54.783203125c-10.76953125-12.802734375-27.357421875-19.20703125-49.763671875-19.20703125Z" style="fill: #fff;"/>
    <path d="M1330.78515625,92.486328125c7.2744140625,0,13.5322265625,2.619140625,18.7705078125,7.857421875,5.091796875,5.23828125,7.638671875,11.49609375,7.638671875,18.7705078125v.4365234375c0,7.2783203125-2.546875,13.4609375-7.638671875,18.552734375-5.23828125,5.23828125-11.49609375,7.857421875-18.7705078125,7.857421875h-12.4404296875c-11.93359375,0-22.044921875,4.146484375-30.3388671875,12.4404296875-8.150390625,8.2939453125-12.2978515625,18.4091796875-12.4404296875,30.3388671875v128.7744140625c0,7.4208984375-2.619140625,13.607421875-7.857421875,18.5517578125-5.23828125,5.23828125-11.4248046875,7.857421875-18.552734375,7.857421875h-.654296875c-7.1318359375,0-13.314453125-2.619140625-18.552734375-7.857421875-5.23828125-4.9443359375-7.857421875-11.130859375-7.857421875-18.5517578125V188.740234375c.2900390625-26.6279296875,9.6748046875-49.3271484375,28.15625-68.09765625,18.76953125-18.7705078125,41.46875-28.15625,68.09765625-28.15625h12.4404296875Z" style="fill: #fff;"/>
    <path d="M1408.0595703125,2.9990234375c7.1279296875,0,13.314453125,2.5478515625,18.552734375,7.6396484375,5.23828125,5.23828125,7.857421875,11.49609375,7.857421875,18.7705078125V317.5146484375c0,7.4208984375-2.619140625,13.607421875-7.857421875,18.5517578125-5.23828125,5.23828125-11.4248046875,7.857421875-18.552734375,7.857421875h-.654296875c-7.1318359375,0-13.314453125-2.619140625-18.552734375-7.857421875-5.23828125-4.9443359375-7.857421875-11.130859375-7.857421875-18.5517578125V29.4091796875c0-7.2744140625,2.619140625-13.5322265625,7.857421875-18.7705078125,5.23828125-5.091796875,11.4208984375-7.6396484375,18.552734375-7.6396484375h.654296875Z" style="fill: #fff;"/>
    <path d="M1531.38671875,233.7021484375c0,14.4052734375,5.01953125,26.703125,15.0595703125,36.8857421875,10.18359375,10.1865234375,22.552734375,15.2783203125,37.1044921875,15.2783203125,14.2587890625,0,26.4814453125-5.091796875,36.66796875-15.2783203125,10.18359375-10.1826171875,15.2783203125-22.48046875,15.2783203125-36.8857421875V119.1142578125c0-7.2744140625,2.619140625-13.5322265625,7.857421875-18.7705078125s11.4931640625-7.857421875,18.7705078125-7.857421875h.4365234375c7.4208984375,0,13.603515625,2.619140625,18.5517578125,7.857421875,5.23828125,5.23828125,7.857421875,11.49609375,7.857421875,18.7705078125v208.876953125c0,28.8095703125-10.8408203125,53.6923828125-32.5205078125,74.6455078125-21.099609375,20.6591796875-45.3984375,30.9921875-72.8994140625,30.9921875-21.826171875,0-41.6875-5.384765625-59.5859375-16.150390625-17.4609375-10.4765625-30.703125-24.5205078125-39.72265625-42.125-2.0400390625-3.9287109375-3.056640625-7.857421875-3.056640625-11.7861328125,0-3.3486328125,.7265625-6.6943359375,2.18359375-10.0400390625,2.908203125-7.5673828125,8-12.583984375,15.27734375-15.060546875l.873046875-.435546875c3.19921875-1.0166015625,6.330078125-1.5283203125,9.3857421875-1.5283203125,3.19921875,0,6.3291015625,.5830078125,9.3857421875,1.74609375,5.9638671875,2.4755859375,10.4765625,6.619140625,13.53125,12.4404296875,4.6552734375,8.73046875,11.6396484375,15.787109375,20.953125,21.171875,9.45703125,5.5283203125,19.7158203125,8.2939453125,30.775390625,8.2939453125,13.822265625,0,25.8984375-5.0947265625,36.2314453125-15.2783203125,10.4765625-10.4765625,15.71484375-22.7705078125,15.71484375-36.8857421875v-1.74609375c-11.49609375,8.5869140625-28.810546875,12.876953125-51.9462890625,12.876953125-29.103515625,0-53.9853515625-10.330078125-74.6455078125-30.9931640625-20.6630859375-20.5166015625-30.9931640625-45.3232421875-30.9931640625-74.4267578125V119.1142578125c0-7.2744140625,2.619140625-13.5322265625,7.857421875-18.7705078125s11.4208984375-7.857421875,18.552734375-7.857421875h.654296875c7.1279296875,0,13.314453125,2.619140625,18.552734375,7.857421875s7.857421875,11.49609375,7.857421875,18.7705078125v114.587890625Z" style="fill: #fff;"/>
  </g>
</svg>